<?xml version="1.0" standalone="no"?>
<!DOCTYPE svg PUBLIC "-//W3C//DTD SVG 20010904//EN"
 "http://www.w3.org/TR/2001/REC-SVG-20010904/DTD/svg10.dtd">
<svg version="1.0" xmlns="http://www.w3.org/2000/svg"
 width="700.000000pt" height="700.000000pt" viewBox="0 0 700.000000 700.000000"
 preserveAspectRatio="xMidYMid meet">
<g transform="translate(0.000000,700.000000) scale(0.100000,-0.100000)"
fill="#000000" stroke="none">
<path d="M791 6969 c-215 -28 -434 -153 -571 -325 -75 -94 -142 -231 -172
-349 l-23 -90 0 -2705 c0 -2549 1 -2709 18 -2774 44 -174 118 -306 237 -426
136 -138 273 -214 453 -251 89 -18 178 -19 2757 -19 1772 0 2687 4 2730 10
287 46 537 233 661 495 93 197 84 -123 84 2975 l0 2735 -28 88 c-52 167 -125
285 -250 404 -130 124 -306 207 -490 232 -95 13 -5306 13 -5406 0z m5500 -255
c202 -72 354 -225 422 -424 l22 -65 3 -2690 c3 -3011 9 -2758 -70 -2918 -57
-114 -171 -228 -285 -285 -160 -79 93 -73 -2918 -70 l-2690 3 -73 27 c-105 38
-175 83 -257 164 -79 78 -140 184 -172 294 -17 62 -18 175 -18 2760 l0 2695
27 80 c79 232 263 399 494 449 60 13 409 14 2749 13 l2680 -2 86 -31z"/>
<path d="M2733 5689 c-485 -51 -908 -321 -1105 -705 -110 -214 -155 -463 -129
-707 62 -570 413 -907 1176 -1131 88 -26 220 -65 294 -87 474 -141 634 -258
635 -464 0 -154 -97 -257 -291 -311 -77 -21 -362 -30 -463 -15 -103 16 -238
63 -323 113 -131 76 -274 241 -344 396 -14 31 -27 58 -28 60 -4 5 -830 -478
-834 -489 -5 -15 111 -244 165 -324 255 -379 633 -605 1159 -692 172 -28 565
-25 740 6 346 61 619 189 823 385 110 106 170 187 237 321 83 165 116 303 122
515 11 376 -88 644 -320 867 -194 186 -444 309 -952 467 -446 139 -614 211
-723 310 -75 69 -102 128 -102 227 0 123 52 204 172 265 139 70 402 72 578 2
157 -61 312 -215 396 -391 10 -20 22 -37 27 -37 7 0 787 452 806 467 10 7 -53
121 -124 228 -132 197 -268 334 -456 460 -309 208 -732 306 -1136 264z"/>
<path d="M4891 2816 c-51 -29 -50 -22 -51 -614 l0 -554 29 -29 c44 -44 77 -39
158 23 300 230 620 493 636 521 19 38 15 80 -11 114 -35 43 -681 543 -709 548
-15 3 -39 -1 -52 -9z"/>
</g>
</svg>
