<svg width="18" height="8" viewBox="0 0 18 8" xmlns="http://www.w3.org/2000/svg">
  <path d="M0 4.042c0 .458.367.833.816.833h14.368L13.51 6.583a.817.817 0 0 0 0 1.167.778.778 0 0 0 1.143 0l3.061-3.125.123-.125s.04-.042.04-.083c0-.042.041-.042.041-.084 0-.041 0-.041.041-.083 0-.042 0-.042.041-.083v-.334c0-.041 0-.041-.04-.083 0-.042 0-.042-.042-.083 0-.042-.04-.042-.04-.084 0-.041-.041-.041-.041-.083l-.123-.125L14.654.25a.778.778 0 0 0-1.144 0 .817.817 0 0 0 0 1.167l1.674 1.791H.816A.827.827 0 0 0 0 4.042z" fill="currentColor" fill-rule="evenodd"/>
</svg>
