<svg xmlns="http://www.w3.org/2000/svg" viewBox="0 0 178 264"><g fill-rule="nonzero" fill="none"><path d="M17.664 0c4.076 0 9.512 1.36 13.588 5.443l14.6 11.582-.182.16c-6.3 5.58-11.316 12.524-15.051 20.797-3.653 8.09-5.515 17.299-5.615 27.591l-.004.854V197.55c0 11.12 1.864 20.753 5.642 28.868l.345.728c3.596 7.49 8.328 13.801 14.185 18.895l.505.433.374.341-14.8 11.742c-3.97 3.977-7.943 5.371-13.171 5.44l-.416.003C9.511 264 0 258.557 0 243.588V20.412C0 6.804 9.511 0 17.664 0zm90.457 83.783l21.885-.001 38.483 30.527c6.668 4.007 9.409 11.947 9.508 16.1l.003.23c0 6.804-2.718 13.608-9.511 19.052L153 161.976v-47.31H80.068v40.943h28.053v41.968l-24.729 19.618c-2.977-.767-5.653-2.186-8.078-4.27-3.492-3-5.354-7.852-5.433-14.915l-.002-.486V66.45c0-7.31 1.868-12.31 5.435-15.375 2.425-2.084 5.1-3.503 8.078-4.27l24.729 19.616v17.362z" fill="#0074D9"/><path d="M89 258c7.13 0 14.204-1.276 21.22-3.829 7.015-2.552 13.398-6.38 19.148-11.486 5.52-4.873 10.006-11.022 13.457-18.447 3.45-7.426 5.175-16.36 5.175-26.802V119.47H84.86v31.326h27.947v46.64c0 8.586-2.358 14.91-7.073 18.97-4.715 4.06-10.293 6.091-16.734 6.091-6.44 0-12.019-2.03-16.734-6.09-4.715-4.062-7.073-10.385-7.073-18.97V66.563c0-8.586 2.358-14.91 7.073-18.97 4.715-4.06 10.293-6.091 16.734-6.091 6.44 0 12.019 2.03 16.734 6.09 4.715 4.062 7.073 10.385 7.073 18.97v12.53H148v-12.53c0-9.977-1.725-18.795-5.175-26.453-3.45-7.657-7.936-14.038-13.457-19.143-5.75-4.873-12.133-8.586-19.149-11.138C103.204 7.276 96.131 6 89 6c-7.13 0-14.204 1.276-21.22 3.829-7.015 2.552-13.283 6.265-18.803 11.138-5.75 5.105-10.351 11.486-13.802 19.143C31.725 47.768 30 56.586 30 66.564v130.872c0 10.442 1.725 19.376 5.175 26.802 3.45 7.425 8.051 13.574 13.802 18.447 5.52 5.105 11.788 8.934 18.804 11.486C74.796 256.724 81.869 258 89 258z" fill="#222"/></g></svg>