<svg xmlns="http://www.w3.org/2000/svg" viewBox="0 0 178 264"><g fill-rule="nonzero" fill="none"><path d="M17.664 0c4.076 0 9.512 1.36 13.588 5.443L45.667 16.88c-4.319 4.84-7.913 10.444-10.785 16.797-3.824 8.46-5.773 18.09-5.878 28.855l-.004.892v137.13c0 11.63 1.951 21.703 5.907 30.19l.36.761c2.828 5.883 6.326 11.07 10.49 15.545l-14.505 11.508C27.176 262.639 23.099 264 17.664 264 9.511 264 0 258.557 0 243.588V20.412C0 6.804 9.511 0 17.664 0zM82.88 46.399l33.137 26.286v8.89l11.205-.001 41.267 32.735c6.668 4.007 9.409 11.947 9.508 16.1l.003.23c0 6.804-2.718 13.608-9.511 19.052L163 154.043v-40.17H86.65v42.818l29.367-.001v34.624L82.88 217.601a23.18 23.18 0 01-1.208-.97c-3.655-3.138-5.605-8.21-5.687-15.597l-.003-.51V63.449c0-7.645 1.956-12.874 5.69-16.08.396-.34.799-.663 1.208-.97z" fill="#0074D9"/><path d="M96 264c7.493 0 14.926-1.337 22.298-4.011 7.373-2.674 14.08-6.685 20.123-12.033 5.801-5.105 10.515-11.547 14.14-19.326 3.626-7.78 5.439-17.138 5.439-28.078v-81.68H91.65v32.819h29.368v48.861c0 8.995-2.478 15.62-7.433 19.873-4.955 4.255-10.817 6.382-17.585 6.382-6.768 0-12.63-2.127-17.585-6.382-4.955-4.254-7.433-10.878-7.433-19.873V63.448c0-8.995 2.478-15.62 7.433-19.873C83.37 39.32 89.232 37.193 96 37.193c6.768 0 12.63 2.127 17.585 6.382 4.955 4.254 7.433 10.878 7.433 19.873v13.127H158V63.448c0-10.454-1.813-19.691-5.439-27.713-3.625-8.022-8.339-14.707-14.14-20.055-6.043-5.105-12.75-8.995-20.123-11.669C110.926 1.337 103.493 0 96 0c-7.493 0-14.926 1.337-22.298 4.011-7.373 2.674-13.96 6.564-19.76 11.669-6.043 5.348-10.878 12.033-14.503 20.055C35.813 43.757 34 52.995 34 63.448v137.104c0 10.94 1.813 20.299 5.439 28.078 3.625 7.779 8.46 14.22 14.503 19.326 5.8 5.348 12.387 9.359 19.76 12.033C81.074 262.663 88.507 264 96 264z" fill="#222"/></g></svg>