<svg xmlns="http://www.w3.org/2000/svg" viewBox="0 0 317.66 96.05">
    <title>Solon</title>
    <path fill="#272732" d="M2.72 68.21l15.45-9c2.8 6.5 7.62 10.87 16.47 10.87 8.51 0 10.64-3.37 10.64-6.39 0-4.82-4.48-6.72-16.24-10S6 44.91 6 29.91 18.73 6.05 32.28 6.05c12.88 0 23 6.16 28.68 17.7l-15.12 8.84c-2.69-5.6-6.39-9.07-13.56-9.07-5.6 0-8.4 2.8-8.4 5.94 0 3.58 1.91 6 14.12 9.74 11.87 3.59 25.2 7.73 25.2 24.31 0 15.12-12.1 24.08-29.12 24.08-16.47 0-27-7.84-31.36-19.38zM70.48 58a29.68 29.68 0 1129.67 29.57A29.35 29.35 0 0170.48 58zM113 58c0-8-5.59-13.22-12.88-13.22S87.27 50.07 87.27 58s5.6 13.21 12.88 13.21S113 66 113 58zM139.35 7h16.8v79h-16.8zM165.67 58a29.68 29.68 0 1129.68 29.57A29.36 29.36 0 01165.67 58zm42.56 0c0-8-5.6-13.22-12.88-13.22S182.47 50.07 182.47 58s5.6 13.21 12.88 13.21S208.23 66 208.23 58zM288.31 51.63V86h-16.8V54.1c0-6.94-4.36-10.19-9.74-10.19-6.16 0-10.42 3.58-10.42 11.53V86h-16.8V30h16.8v5.26c3-4.14 8.63-6.83 16-6.83 11.33.02 20.96 8.08 20.96 23.2z"/>
    <path fill="#f37c53" d="M311.18 72.89l-11.85-9.38a1.94 1.94 0 00-1.19-.46 1.62 1.62 0 00-1.56 1.81v19.35a1.62 1.62 0 001.56 1.79 1.94 1.94 0 001.19-.46l11.85-9.38a2.06 2.06 0 000-3.29z"/>
</svg>
