<svg xmlns="http://www.w3.org/2000/svg" viewBox="0 0 100.46 98.91">
    <title>Solon</title>
    <rect fill="#fff" x="5.87" y="3.86" width="91.19" height="91.19" rx="10.5"/>
    <path fill="#272732" d="M86.56 5.36a9 9 0 019 9v70.19a9 9 0 01-9 9H16.37a9 9 0 01-9-9V14.36a9 9 0 019-9h70.19m0-3H16.37a12 12 0 00-12 12v70.19a12 12 0 0012 12h70.19a12 12 0 0012-12V14.36a12 12 0 00-12-12z"/>
    <path fill="#f37c53" d="M80.39 65.82L71.76 59a1.4 1.4 0 00-.88-.34A1.18 1.18 0 0069.75 60v14.08a1.17 1.17 0 001.13 1.31 1.39 1.39 0 00.87-.33l8.64-6.85A1.5 1.5 0 0081 67a1.52 1.52 0 00-.61-1.18z"/>
    <path fill="#272732" d="M21.93 65.06l11.27-6.54c2 4.74 5.56 7.93 12 7.93 6.22 0 7.8-2.45 7.8-4.66 0-3.51-3.27-4.9-11.84-7.27S24.3 48.07 24.3 37.12s9.31-17.4 19.2-17.4c9.39 0 16.74 4.49 20.91 12.91l-11 6.45c-2-4.08-4.66-6.62-9.88-6.62-4.09 0-6.13 2-6.13 4.33 0 2.62 1.39 4.41 10.29 7.11C56.32 46.51 66 49.54 66 61.63c0 11-8.82 17.56-21.24 17.56-11.97 0-19.65-5.72-22.83-14.13z"/>
</svg>
